# xmcd
#
# Track frame offsets:
#	150
#	13423
#	23948
#	34811
#	49889
#	60470
#	76674
#
# Disc length: 1203 seconds
#
# Revision: 0
# Processed by: cddbd v1.5.2PL0 Copyright (c) Steve Scherf et al.
# Submitted via: audiograbber 1.83.01
#
DISCID=5104b107
DTITLE=Selective - Selective
DYEAR=1998
DGENRE=Country
TTITLE0=I Can´t Say I Love You
TTITLE1=The Road Gang Show
TTITLE2=Honky Tonkitis
TTITLE3=The Man You Used To Be
TTITLE4=Eigth Seconds Thrill
TTITLE5=Trugh My Eyes
TTITLE6=Cafe Katie
EXTD=
EXTT0=
EXTT1=
EXTT2=
EXTT3=
EXTT4=
EXTT5=
EXTT6=
PLAYORDER=
